<mxfile host="app.diagrams.net" modified="2022-04-16T14:11:28.538Z" agent="5.0 (Windows NT 10.0; Win64; x64) AppleWebKit/537.36 (KHTML, like Gecko) Chrome/100.0.4896.75 Safari/537.36 Edg/100.0.1185.39" etag="UaQdhuYULckKhf1SP_DF" version="17.4.3" type="github">
  <diagram id="T52btY6vNkbw7eNwKL0v" name="Page-1">
    <mxGraphModel dx="1042" dy="595" grid="1" gridSize="10" guides="1" tooltips="1" connect="1" arrows="1" fold="1" page="1" pageScale="1" pageWidth="827" pageHeight="1169" math="0" shadow="0">
      <root>
        <mxCell id="0" />
        <mxCell id="1" parent="0" />
        <mxCell id="SLdLo2Ttj02jNx1zmSGL-1" value="虚拟机发放流程" style="rounded=1;whiteSpace=wrap;html=1;" vertex="1" parent="1">
          <mxGeometry x="314" y="10" width="200" height="60" as="geometry" />
        </mxCell>
        <mxCell id="SLdLo2Ttj02jNx1zmSGL-3" value="ITA" style="rounded=0;whiteSpace=wrap;html=1;" vertex="1" parent="1">
          <mxGeometry x="40" y="80" width="60" height="30" as="geometry" />
        </mxCell>
        <mxCell id="SLdLo2Ttj02jNx1zmSGL-4" value="VRM" style="rounded=0;whiteSpace=wrap;html=1;" vertex="1" parent="1">
          <mxGeometry x="190" y="80" width="60" height="30" as="geometry" />
        </mxCell>
        <mxCell id="SLdLo2Ttj02jNx1zmSGL-5" value="HDC" style="rounded=0;whiteSpace=wrap;html=1;" vertex="1" parent="1">
          <mxGeometry x="370" y="80" width="60" height="30" as="geometry" />
        </mxCell>
        <mxCell id="SLdLo2Ttj02jNx1zmSGL-6" value="VM" style="rounded=0;whiteSpace=wrap;html=1;" vertex="1" parent="1">
          <mxGeometry x="530" y="80" width="60" height="30" as="geometry" />
        </mxCell>
        <mxCell id="SLdLo2Ttj02jNx1zmSGL-7" value="DB" style="rounded=0;whiteSpace=wrap;html=1;" vertex="1" parent="1">
          <mxGeometry x="720" y="80" width="60" height="30" as="geometry" />
        </mxCell>
        <mxCell id="SLdLo2Ttj02jNx1zmSGL-10" value="" style="endArrow=classic;html=1;rounded=0;" edge="1" parent="1">
          <mxGeometry relative="1" as="geometry">
            <mxPoint x="70" y="150" as="sourcePoint" />
            <mxPoint x="750" y="150" as="targetPoint" />
            <Array as="points" />
          </mxGeometry>
        </mxCell>
        <mxCell id="SLdLo2Ttj02jNx1zmSGL-11" value="将任务状态更新为running" style="edgeLabel;resizable=0;html=1;align=center;verticalAlign=middle;" connectable="0" vertex="1" parent="SLdLo2Ttj02jNx1zmSGL-10">
          <mxGeometry relative="1" as="geometry">
            <mxPoint x="-1" as="offset" />
          </mxGeometry>
        </mxCell>
        <mxCell id="SLdLo2Ttj02jNx1zmSGL-12" value="返回更新结果" style="endArrow=classic;html=1;rounded=0;" edge="1" parent="1">
          <mxGeometry relative="1" as="geometry">
            <mxPoint x="750" y="180" as="sourcePoint" />
            <mxPoint x="70" y="180" as="targetPoint" />
          </mxGeometry>
        </mxCell>
        <mxCell id="SLdLo2Ttj02jNx1zmSGL-14" value="" style="endArrow=none;html=1;rounded=0;entryX=0.5;entryY=1;entryDx=0;entryDy=0;" edge="1" parent="1" target="SLdLo2Ttj02jNx1zmSGL-5">
          <mxGeometry width="50" height="50" relative="1" as="geometry">
            <mxPoint x="400" y="1240" as="sourcePoint" />
            <mxPoint x="440" y="190" as="targetPoint" />
          </mxGeometry>
        </mxCell>
        <mxCell id="SLdLo2Ttj02jNx1zmSGL-15" value="" style="endArrow=none;html=1;rounded=0;" edge="1" parent="1">
          <mxGeometry width="50" height="50" relative="1" as="geometry">
            <mxPoint x="560" y="1240" as="sourcePoint" />
            <mxPoint x="560" y="110" as="targetPoint" />
            <Array as="points">
              <mxPoint x="560" y="110" />
            </Array>
          </mxGeometry>
        </mxCell>
        <mxCell id="SLdLo2Ttj02jNx1zmSGL-17" value="" style="endArrow=none;html=1;rounded=0;entryX=0.5;entryY=1;entryDx=0;entryDy=0;" edge="1" parent="1" target="SLdLo2Ttj02jNx1zmSGL-4">
          <mxGeometry width="50" height="50" relative="1" as="geometry">
            <mxPoint x="220" y="1240" as="sourcePoint" />
            <mxPoint x="440" y="280" as="targetPoint" />
          </mxGeometry>
        </mxCell>
        <mxCell id="SLdLo2Ttj02jNx1zmSGL-18" value="" style="endArrow=none;html=1;rounded=0;entryX=0.5;entryY=1;entryDx=0;entryDy=0;" edge="1" parent="1" target="SLdLo2Ttj02jNx1zmSGL-3">
          <mxGeometry width="50" height="50" relative="1" as="geometry">
            <mxPoint x="70" y="1240" as="sourcePoint" />
            <mxPoint x="90" y="250" as="targetPoint" />
          </mxGeometry>
        </mxCell>
        <mxCell id="SLdLo2Ttj02jNx1zmSGL-21" value="" style="endArrow=none;html=1;rounded=0;entryX=0.5;entryY=1;entryDx=0;entryDy=0;" edge="1" parent="1" target="SLdLo2Ttj02jNx1zmSGL-7">
          <mxGeometry width="50" height="50" relative="1" as="geometry">
            <mxPoint x="750" y="1240" as="sourcePoint" />
            <mxPoint x="440" y="280" as="targetPoint" />
          </mxGeometry>
        </mxCell>
        <mxCell id="SLdLo2Ttj02jNx1zmSGL-23" value="检查指定的虚拟机组是否存在" style="curved=1;endArrow=classic;html=1;rounded=0;" edge="1" parent="1">
          <mxGeometry x="-0.0317" y="61" width="50" height="50" relative="1" as="geometry">
            <mxPoint x="70" y="200" as="sourcePoint" />
            <mxPoint x="70" y="240" as="targetPoint" />
            <Array as="points">
              <mxPoint x="170" y="210" />
              <mxPoint x="110" y="240" />
              <mxPoint x="70" y="240" />
            </Array>
            <mxPoint x="33" y="-45" as="offset" />
          </mxGeometry>
        </mxCell>
        <mxCell id="SLdLo2Ttj02jNx1zmSGL-25" value="如果指定的虚拟机组不存在则创建" style="endArrow=classic;html=1;rounded=0;" edge="1" parent="1">
          <mxGeometry width="50" height="50" relative="1" as="geometry">
            <mxPoint x="70" y="260" as="sourcePoint" />
            <mxPoint x="750" y="260" as="targetPoint" />
          </mxGeometry>
        </mxCell>
        <mxCell id="SLdLo2Ttj02jNx1zmSGL-27" value="返回创建结果" style="endArrow=classic;html=1;rounded=0;" edge="1" parent="1">
          <mxGeometry width="50" height="50" relative="1" as="geometry">
            <mxPoint x="750" y="280" as="sourcePoint" />
            <mxPoint x="70" y="280" as="targetPoint" />
          </mxGeometry>
        </mxCell>
        <mxCell id="SLdLo2Ttj02jNx1zmSGL-31" value="检查指定的桌面组是否存在" style="curved=1;endArrow=classic;html=1;rounded=0;" edge="1" parent="1">
          <mxGeometry x="-0.0317" y="61" width="50" height="50" relative="1" as="geometry">
            <mxPoint x="70" y="290" as="sourcePoint" />
            <mxPoint x="70" y="330" as="targetPoint" />
            <Array as="points">
              <mxPoint x="170" y="300" />
              <mxPoint x="100" y="320" />
              <mxPoint x="70" y="320" />
              <mxPoint x="70" y="330" />
            </Array>
            <mxPoint x="33" y="-45" as="offset" />
          </mxGeometry>
        </mxCell>
        <mxCell id="SLdLo2Ttj02jNx1zmSGL-32" value="如果桌面组不存在则创建" style="endArrow=classic;html=1;rounded=0;" edge="1" parent="1">
          <mxGeometry width="50" height="50" relative="1" as="geometry">
            <mxPoint x="70" y="340" as="sourcePoint" />
            <mxPoint x="400" y="340" as="targetPoint" />
          </mxGeometry>
        </mxCell>
        <mxCell id="SLdLo2Ttj02jNx1zmSGL-33" value="f返回创建结果" style="endArrow=classic;html=1;rounded=0;" edge="1" parent="1">
          <mxGeometry width="50" height="50" relative="1" as="geometry">
            <mxPoint x="400" y="360" as="sourcePoint" />
            <mxPoint x="70" y="360" as="targetPoint" />
            <Array as="points">
              <mxPoint x="240" y="360" />
            </Array>
          </mxGeometry>
        </mxCell>
        <mxCell id="SLdLo2Ttj02jNx1zmSGL-34" value="保存创建好的桌面组信息" style="endArrow=classic;html=1;rounded=0;" edge="1" parent="1">
          <mxGeometry width="50" height="50" relative="1" as="geometry">
            <mxPoint x="70" y="390" as="sourcePoint" />
            <mxPoint x="750" y="390" as="targetPoint" />
          </mxGeometry>
        </mxCell>
        <mxCell id="SLdLo2Ttj02jNx1zmSGL-35" value="返回保存结果" style="endArrow=classic;html=1;rounded=0;" edge="1" parent="1">
          <mxGeometry width="50" height="50" relative="1" as="geometry">
            <mxPoint x="750" y="410" as="sourcePoint" />
            <mxPoint x="70" y="410" as="targetPoint" />
          </mxGeometry>
        </mxCell>
        <mxCell id="SLdLo2Ttj02jNx1zmSGL-36" value="下发创建虚拟机请求" style="endArrow=classic;html=1;rounded=0;" edge="1" parent="1">
          <mxGeometry width="50" height="50" relative="1" as="geometry">
            <mxPoint x="70" y="440" as="sourcePoint" />
            <mxPoint x="220" y="440" as="targetPoint" />
          </mxGeometry>
        </mxCell>
        <mxCell id="SLdLo2Ttj02jNx1zmSGL-37" value="创建虚拟机任务ID" style="endArrow=classic;html=1;rounded=0;" edge="1" parent="1">
          <mxGeometry width="50" height="50" relative="1" as="geometry">
            <mxPoint x="220" y="460" as="sourcePoint" />
            <mxPoint x="70" y="460" as="targetPoint" />
          </mxGeometry>
        </mxCell>
        <mxCell id="SLdLo2Ttj02jNx1zmSGL-38" value="根据任务ID查询结果" style="endArrow=classic;html=1;rounded=0;" edge="1" parent="1">
          <mxGeometry width="50" height="50" relative="1" as="geometry">
            <mxPoint x="70" y="490" as="sourcePoint" />
            <mxPoint x="220" y="490" as="targetPoint" />
          </mxGeometry>
        </mxCell>
        <mxCell id="SLdLo2Ttj02jNx1zmSGL-39" value="返回创建结果" style="endArrow=classic;html=1;rounded=0;" edge="1" parent="1">
          <mxGeometry width="50" height="50" relative="1" as="geometry">
            <mxPoint x="220" y="510" as="sourcePoint" />
            <mxPoint x="70" y="510" as="targetPoint" />
            <Array as="points">
              <mxPoint x="140" y="510" />
            </Array>
          </mxGeometry>
        </mxCell>
        <mxCell id="SLdLo2Ttj02jNx1zmSGL-40" value="更新任务信息" style="endArrow=classic;html=1;rounded=0;" edge="1" parent="1">
          <mxGeometry width="50" height="50" relative="1" as="geometry">
            <mxPoint x="70" y="540" as="sourcePoint" />
            <mxPoint x="750" y="540" as="targetPoint" />
          </mxGeometry>
        </mxCell>
        <mxCell id="SLdLo2Ttj02jNx1zmSGL-41" value="返回更新结果" style="endArrow=classic;html=1;rounded=0;" edge="1" parent="1">
          <mxGeometry width="50" height="50" relative="1" as="geometry">
            <mxPoint x="750" y="560" as="sourcePoint" />
            <mxPoint x="70" y="560" as="targetPoint" />
          </mxGeometry>
        </mxCell>
        <mxCell id="SLdLo2Ttj02jNx1zmSGL-42" value="根据任务信息中的siteid/vmid查询虚拟机ip" style="endArrow=classic;html=1;rounded=0;" edge="1" parent="1">
          <mxGeometry x="0.7333" y="10" width="50" height="50" relative="1" as="geometry">
            <mxPoint x="70" y="590" as="sourcePoint" />
            <mxPoint x="220" y="590" as="targetPoint" />
            <mxPoint as="offset" />
          </mxGeometry>
        </mxCell>
        <mxCell id="SLdLo2Ttj02jNx1zmSGL-43" value="返回虚拟IP" style="endArrow=classic;html=1;rounded=0;" edge="1" parent="1">
          <mxGeometry width="50" height="50" relative="1" as="geometry">
            <mxPoint x="220" y="610" as="sourcePoint" />
            <mxPoint x="70" y="610" as="targetPoint" />
          </mxGeometry>
        </mxCell>
        <mxCell id="SLdLo2Ttj02jNx1zmSGL-44" value="siteid（站点ID）&lt;br&gt;vmid（虚拟机ID）" style="rounded=1;whiteSpace=wrap;html=1;" vertex="1" parent="1">
          <mxGeometry x="340" y="580" width="102" height="30" as="geometry" />
        </mxCell>
        <mxCell id="SLdLo2Ttj02jNx1zmSGL-47" value="返回虚拟机重命名结果" style="endArrow=classic;html=1;rounded=0;" edge="1" parent="1">
          <mxGeometry width="50" height="50" relative="1" as="geometry">
            <mxPoint x="560" y="660" as="sourcePoint" />
            <mxPoint x="70" y="660" as="targetPoint" />
          </mxGeometry>
        </mxCell>
        <mxCell id="SLdLo2Ttj02jNx1zmSGL-48" value="根据虚拟机IP重命名虚拟机" style="endArrow=classic;html=1;rounded=0;" edge="1" parent="1">
          <mxGeometry width="50" height="50" relative="1" as="geometry">
            <mxPoint x="70" y="640" as="sourcePoint" />
            <mxPoint x="560" y="640" as="targetPoint" />
          </mxGeometry>
        </mxCell>
        <mxCell id="SLdLo2Ttj02jNx1zmSGL-49" value="判断虚拟机是否加域" style="endArrow=classic;html=1;rounded=0;" edge="1" parent="1">
          <mxGeometry width="50" height="50" relative="1" as="geometry">
            <mxPoint x="70" y="690" as="sourcePoint" />
            <mxPoint x="560" y="690" as="targetPoint" />
          </mxGeometry>
        </mxCell>
        <mxCell id="SLdLo2Ttj02jNx1zmSGL-50" value="返回加域结果" style="endArrow=classic;html=1;rounded=0;" edge="1" parent="1">
          <mxGeometry width="50" height="50" relative="1" as="geometry">
            <mxPoint x="560" y="710" as="sourcePoint" />
            <mxPoint x="70" y="710" as="targetPoint" />
          </mxGeometry>
        </mxCell>
        <mxCell id="SLdLo2Ttj02jNx1zmSGL-51" value="将虚拟机加入虚拟机组" style="endArrow=classic;html=1;rounded=0;" edge="1" parent="1">
          <mxGeometry width="50" height="50" relative="1" as="geometry">
            <mxPoint x="70" y="740" as="sourcePoint" />
            <mxPoint x="750" y="740" as="targetPoint" />
          </mxGeometry>
        </mxCell>
        <mxCell id="SLdLo2Ttj02jNx1zmSGL-52" value="加入虚拟机组响应" style="endArrow=classic;html=1;rounded=0;" edge="1" parent="1">
          <mxGeometry width="50" height="50" relative="1" as="geometry">
            <mxPoint x="750" y="760" as="sourcePoint" />
            <mxPoint x="70" y="760" as="targetPoint" />
          </mxGeometry>
        </mxCell>
        <mxCell id="SLdLo2Ttj02jNx1zmSGL-54" value="虚拟机加入桌面组" style="endArrow=classic;html=1;rounded=0;" edge="1" parent="1">
          <mxGeometry width="50" height="50" relative="1" as="geometry">
            <mxPoint x="70" y="800" as="sourcePoint" />
            <mxPoint x="400" y="800" as="targetPoint" />
          </mxGeometry>
        </mxCell>
        <mxCell id="SLdLo2Ttj02jNx1zmSGL-55" value="加入桌面组响应" style="endArrow=classic;html=1;rounded=0;" edge="1" parent="1">
          <mxGeometry width="50" height="50" relative="1" as="geometry">
            <mxPoint x="400" y="820" as="sourcePoint" />
            <mxPoint x="70" y="820" as="targetPoint" />
          </mxGeometry>
        </mxCell>
        <mxCell id="SLdLo2Ttj02jNx1zmSGL-56" value="j将用户关联到桌面组" style="endArrow=classic;html=1;rounded=0;" edge="1" parent="1">
          <mxGeometry width="50" height="50" relative="1" as="geometry">
            <mxPoint x="70" y="850" as="sourcePoint" />
            <mxPoint x="400" y="850" as="targetPoint" />
          </mxGeometry>
        </mxCell>
        <mxCell id="SLdLo2Ttj02jNx1zmSGL-57" value="返回关联结果" style="endArrow=classic;html=1;rounded=0;" edge="1" parent="1">
          <mxGeometry width="50" height="50" relative="1" as="geometry">
            <mxPoint x="400" y="870" as="sourcePoint" />
            <mxPoint x="70" y="870" as="targetPoint" />
          </mxGeometry>
        </mxCell>
        <mxCell id="SLdLo2Ttj02jNx1zmSGL-58" value="j将用户添加至虚拟机的用户组内" style="endArrow=classic;html=1;rounded=0;" edge="1" parent="1">
          <mxGeometry width="50" height="50" relative="1" as="geometry">
            <mxPoint x="70" y="900" as="sourcePoint" />
            <mxPoint x="560" y="900" as="targetPoint" />
          </mxGeometry>
        </mxCell>
        <mxCell id="SLdLo2Ttj02jNx1zmSGL-59" value="返回添加结果" style="endArrow=classic;html=1;rounded=0;" edge="1" parent="1">
          <mxGeometry width="50" height="50" relative="1" as="geometry">
            <mxPoint x="560" y="920" as="sourcePoint" />
            <mxPoint x="70" y="920" as="targetPoint" />
          </mxGeometry>
        </mxCell>
        <mxCell id="SLdLo2Ttj02jNx1zmSGL-60" value="更新任务结果" style="endArrow=classic;html=1;rounded=0;" edge="1" parent="1">
          <mxGeometry width="50" height="50" relative="1" as="geometry">
            <mxPoint x="70" y="950" as="sourcePoint" />
            <mxPoint x="750" y="950" as="targetPoint" />
          </mxGeometry>
        </mxCell>
        <mxCell id="SLdLo2Ttj02jNx1zmSGL-61" value="返回更新结果" style="endArrow=classic;html=1;rounded=0;" edge="1" parent="1">
          <mxGeometry width="50" height="50" relative="1" as="geometry">
            <mxPoint x="750" y="970" as="sourcePoint" />
            <mxPoint x="70" y="970" as="targetPoint" />
          </mxGeometry>
        </mxCell>
        <mxCell id="SLdLo2Ttj02jNx1zmSGL-62" value="在虚拟机注册表内写入HDC地址" style="endArrow=classic;html=1;rounded=0;" edge="1" parent="1">
          <mxGeometry width="50" height="50" relative="1" as="geometry">
            <mxPoint x="70" y="1000" as="sourcePoint" />
            <mxPoint x="560" y="1000" as="targetPoint" />
          </mxGeometry>
        </mxCell>
        <mxCell id="SLdLo2Ttj02jNx1zmSGL-63" value="返回写入结果" style="endArrow=classic;html=1;rounded=0;" edge="1" parent="1">
          <mxGeometry width="50" height="50" relative="1" as="geometry">
            <mxPoint x="560" y="1020" as="sourcePoint" />
            <mxPoint x="70" y="1020" as="targetPoint" />
          </mxGeometry>
        </mxCell>
        <mxCell id="SLdLo2Ttj02jNx1zmSGL-64" value="虚拟机重命名" style="endArrow=classic;html=1;rounded=0;" edge="1" parent="1">
          <mxGeometry width="50" height="50" relative="1" as="geometry">
            <mxPoint x="70" y="1050" as="sourcePoint" />
            <mxPoint x="560" y="1050" as="targetPoint" />
          </mxGeometry>
        </mxCell>
        <mxCell id="SLdLo2Ttj02jNx1zmSGL-65" value="返回重命名结果" style="endArrow=classic;html=1;rounded=0;" edge="1" parent="1">
          <mxGeometry width="50" height="50" relative="1" as="geometry">
            <mxPoint x="560" y="1070" as="sourcePoint" />
            <mxPoint x="70" y="1070" as="targetPoint" />
          </mxGeometry>
        </mxCell>
        <mxCell id="SLdLo2Ttj02jNx1zmSGL-66" value="虚重启拟机" style="endArrow=classic;html=1;rounded=0;" edge="1" parent="1">
          <mxGeometry width="50" height="50" relative="1" as="geometry">
            <mxPoint x="70" y="1100" as="sourcePoint" />
            <mxPoint x="220" y="1100" as="targetPoint" />
          </mxGeometry>
        </mxCell>
        <mxCell id="SLdLo2Ttj02jNx1zmSGL-67" value="返回结果" style="endArrow=classic;html=1;rounded=0;" edge="1" parent="1">
          <mxGeometry width="50" height="50" relative="1" as="geometry">
            <mxPoint x="220" y="1120" as="sourcePoint" />
            <mxPoint x="70" y="1120" as="targetPoint" />
          </mxGeometry>
        </mxCell>
        <mxCell id="SLdLo2Ttj02jNx1zmSGL-68" value="更新任务信息" style="endArrow=classic;html=1;rounded=0;" edge="1" parent="1">
          <mxGeometry width="50" height="50" relative="1" as="geometry">
            <mxPoint x="70" y="1150" as="sourcePoint" />
            <mxPoint x="560" y="1150" as="targetPoint" />
          </mxGeometry>
        </mxCell>
        <mxCell id="SLdLo2Ttj02jNx1zmSGL-69" value="返回更新结果" style="endArrow=classic;html=1;rounded=0;" edge="1" parent="1">
          <mxGeometry width="50" height="50" relative="1" as="geometry">
            <mxPoint x="560" y="1170" as="sourcePoint" />
            <mxPoint x="70" y="1170" as="targetPoint" />
          </mxGeometry>
        </mxCell>
      </root>
    </mxGraphModel>
  </diagram>
</mxfile>
